<svg width="40" height="40" viewBox="0 0 40 40" fill="none" xmlns="http://www.w3.org/2000/svg">
<path d="M31.705 28.295C30.9244 27.5473 30.1647 26.7781 29.4266 25.9883C28.8066 25.3583 28.4333 24.9 28.4333 24.9L23.7666 22.6717C25.635 20.5527 26.6661 17.825 26.6666 15C26.6666 8.56834 21.4333 3.33334 15 3.33334C8.56665 3.33334 3.33331 8.56834 3.33331 15C3.33331 21.4317 8.56665 26.6667 15 26.6667C17.9383 26.6667 20.6166 25.5667 22.6716 23.7683L24.9 28.435C24.9 28.435 25.3583 28.8083 25.9883 29.4283C26.6333 30.0333 27.4816 30.8517 28.295 31.7067L30.5583 34.0267L31.565 35.1033L35.1 31.5683L34.0233 30.5617C33.3916 29.9417 32.5483 29.1183 31.705 28.295ZM15 23.3333C10.405 23.3333 6.66665 19.595 6.66665 15C6.66665 10.405 10.405 6.66668 15 6.66668C19.595 6.66668 23.3333 10.405 23.3333 15C23.3333 19.595 19.595 23.3333 15 23.3333Z" fill="white"/>
</svg>
