<svg width="36" height="361" viewBox="0 0 36 361" fill="none" xmlns="http://www.w3.org/2000/svg">
<path d="M20.0955 34.995V21.335H24.243L24.8595 15.9867H20.0955V12.58C20.0955 11.0367 20.4825 9.98001 22.476 9.98001H25.002V5.21167C23.7729 5.06533 22.5376 4.99466 21.3015 5.00001C17.6355 5.00001 15.1185 7.48667 15.1185 12.0517V15.9767H10.998V21.325H15.1275V34.995H20.0955Z" fill="black"/>
<path fill-rule="evenodd" clip-rule="evenodd" d="M10.8864 112.555C12.5971 112.476 13.1425 112.458 17.5 112.458C21.8575 112.458 22.4029 112.477 24.1121 112.555C25.8212 112.632 26.9879 112.905 28.0087 113.3C29.0777 113.704 30.0475 114.335 30.8496 115.152C31.6662 115.953 32.2962 116.921 32.6987 117.991C33.0954 119.012 33.3666 120.179 33.4454 121.885C33.5241 123.599 33.5416 124.144 33.5416 128.5C33.5416 132.858 33.5227 133.403 33.4454 135.114C33.3681 136.82 33.0954 137.986 32.6987 139.007C32.2962 140.078 31.6652 141.048 30.8496 141.85C30.0475 142.666 29.0777 143.296 28.0087 143.699C26.9879 144.095 25.8212 144.367 24.115 144.445C22.4029 144.524 21.8575 144.542 17.5 144.542C13.1425 144.542 12.5971 144.523 10.8864 144.445C9.18019 144.368 8.01352 144.095 6.99269 143.699C5.92216 143.296 4.95222 142.665 4.1504 141.85C3.33428 141.048 2.70273 140.079 2.29977 139.009C1.90456 137.988 1.63331 136.821 1.55456 135.115C1.47581 133.401 1.45831 132.856 1.45831 128.5C1.45831 124.142 1.47727 123.597 1.55456 121.888C1.63185 120.179 1.90456 119.012 2.29977 117.991C2.70333 116.921 3.33536 115.951 4.15185 115.15C4.95254 114.334 5.9215 113.703 6.99123 113.3C8.01206 112.905 9.17873 112.633 10.885 112.555H10.8864ZM23.9823 115.442C22.2906 115.365 21.7831 115.349 17.5 115.349C13.2169 115.349 12.7094 115.365 11.0177 115.442C9.4529 115.514 8.60415 115.775 8.03831 115.995C7.29019 116.286 6.75498 116.632 6.19352 117.194C5.66129 117.711 5.2517 118.342 4.99477 119.038C4.77456 119.604 4.51352 120.453 4.44206 122.018C4.36477 123.709 4.34873 124.217 4.34873 128.5C4.34873 132.783 4.36477 133.291 4.44206 134.982C4.51352 136.547 4.77456 137.396 4.99477 137.962C5.25144 138.657 5.66123 139.289 6.19352 139.806C6.71123 140.339 7.34269 140.749 8.03831 141.005C8.60415 141.225 9.4529 141.486 11.0177 141.558C12.7094 141.635 13.2154 141.651 17.5 141.651C21.7846 141.651 22.2906 141.635 23.9823 141.558C25.5471 141.486 26.3958 141.225 26.9616 141.005C27.7098 140.714 28.245 140.368 28.8064 139.806C29.3387 139.289 29.7485 138.657 30.0052 137.962C30.2254 137.396 30.4864 136.547 30.5579 134.982C30.6352 133.291 30.6512 132.783 30.6512 128.5C30.6512 124.217 30.6352 123.709 30.5579 122.018C30.4864 120.453 30.2254 119.604 30.0052 119.038C29.7135 118.29 29.3679 117.755 28.8064 117.194C28.2886 116.661 27.6583 116.252 26.9616 115.995C26.3958 115.775 25.5471 115.514 23.9823 115.442ZM15.451 133.445C16.5953 133.922 17.8695 133.986 19.0559 133.627C20.2423 133.268 21.2674 132.509 21.9561 131.478C22.6447 130.448 22.9542 129.21 22.8317 127.977C22.7092 126.743 22.1623 125.591 21.2844 124.716C20.7247 124.156 20.048 123.728 19.303 123.462C18.5579 123.195 17.7631 123.097 16.9757 123.175C16.1883 123.253 15.4279 123.504 14.7493 123.911C14.0706 124.318 13.4906 124.87 13.051 125.528C12.6114 126.186 12.3232 126.933 12.207 127.715C12.0908 128.498 12.1496 129.297 12.3791 130.054C12.6086 130.811 13.0032 131.508 13.5344 132.094C14.0655 132.681 14.7201 133.142 15.451 133.445ZM11.6696 122.67C12.4352 121.904 13.3442 121.297 14.3446 120.882C15.345 120.468 16.4172 120.255 17.5 120.255C18.5828 120.255 19.655 120.468 20.6554 120.882C21.6558 121.297 22.5647 121.904 23.3304 122.67C24.0961 123.435 24.7034 124.344 25.1178 125.345C25.5322 126.345 25.7454 127.417 25.7454 128.5C25.7454 129.583 25.5322 130.655 25.1178 131.655C24.7034 132.656 24.0961 133.565 23.3304 134.33C21.7841 135.877 19.6868 136.745 17.5 136.745C15.3131 136.745 13.2159 135.877 11.6696 134.33C10.1232 132.784 9.25453 130.687 9.25453 128.5C9.25453 126.313 10.1232 124.216 11.6696 122.67ZM27.5741 121.483C27.7639 121.304 27.9158 121.088 28.0208 120.85C28.1259 120.611 28.182 120.353 28.1858 120.093C28.1896 119.832 28.141 119.573 28.043 119.331C27.9449 119.089 27.7994 118.87 27.6149 118.685C27.4305 118.501 27.2109 118.355 26.9692 118.257C26.7275 118.159 26.4686 118.111 26.2078 118.115C25.947 118.118 25.6896 118.174 25.4508 118.28C25.2121 118.385 24.9969 118.537 24.8179 118.726C24.4698 119.095 24.2792 119.585 24.2866 120.093C24.294 120.6 24.4988 121.084 24.8575 121.443C25.2162 121.802 25.7006 122.006 26.2078 122.014C26.715 122.021 27.2051 121.831 27.5741 121.483Z" fill="black"/>
<path d="M10.9944 249.812C24.2025 249.812 31.4278 238.868 31.4278 229.394C31.4278 229.088 31.4278 228.777 31.4147 228.471C32.8214 227.453 34.0354 226.192 35 224.748C33.686 225.327 32.2935 225.709 30.8678 225.881C32.3696 224.984 33.4944 223.571 34.0331 221.907C32.6222 222.742 31.0778 223.329 29.4678 223.641C28.3854 222.488 26.9531 221.725 25.3927 221.469C23.8323 221.212 22.231 221.478 20.8367 222.224C19.4424 222.97 18.333 224.154 17.6804 225.595C17.0277 227.035 16.8682 228.65 17.2266 230.191C14.3713 230.047 11.578 229.306 9.02791 228.013C6.47778 226.721 4.22775 224.907 2.42375 222.69C1.50793 224.271 1.22844 226.142 1.64204 227.923C2.05563 229.703 3.13131 231.259 4.65062 232.275C3.51212 232.237 2.39864 231.931 1.4 231.383V231.481C1.40196 233.138 1.97598 234.744 3.02504 236.026C4.07409 237.309 5.53382 238.19 7.1575 238.521C6.5412 238.69 5.90456 238.775 5.26531 238.772C4.81465 238.774 4.36489 238.732 3.92219 238.647C4.3811 240.074 5.27466 241.321 6.47773 242.214C7.68079 243.107 9.13311 243.602 10.6313 243.628C8.08622 245.627 4.94244 246.712 1.70625 246.706C1.13601 246.709 0.566176 246.676 0 246.608C3.28456 248.702 7.09909 249.814 10.9944 249.812Z" fill="black"/>
<path d="M31.4898 334.405C31.3237 333.736 30.9991 333.125 30.5482 332.635C30.0974 332.144 29.5361 331.79 28.9202 331.609C26.6365 330.928 17.5 330.917 17.5 330.917C17.5 330.917 8.36499 330.906 6.07978 331.556C5.46426 331.747 4.90411 332.105 4.45311 332.598C4.00211 333.091 3.67541 333.702 3.50437 334.372C2.90208 336.851 2.89624 341.994 2.89624 341.994C2.89624 341.994 2.89041 347.162 3.48833 349.616C3.82374 350.973 4.80812 352.045 6.05937 352.41C8.36645 353.091 17.4781 353.102 17.4781 353.102C17.4781 353.102 26.6146 353.113 28.8983 352.464C29.5145 352.283 30.0763 351.93 30.5282 351.44C30.9802 350.951 31.3066 350.341 31.4752 349.673C32.079 347.195 32.0833 342.054 32.0833 342.054C32.0833 342.054 32.1125 336.884 31.4898 334.405ZM14.5775 346.758L14.5848 337.258L22.1783 342.016L14.5775 346.758Z" fill="black"/>
</svg>
